<?xml version="1.0" encoding="UTF-8" standalone="no"?>
<!-- Created with Inkscape (http://www.inkscape.org/) -->

<svg
   width="48"
   height="48"
   viewBox="0 0 48 48"
   version="1.1"
   id="svg4589"
   inkscape:version="1.2.1 (1:1.2.1+202210291244+9c6d41e410)"
   sodipodi:docname="json.svg"
   xmlns:inkscape="http://www.inkscape.org/namespaces/inkscape"
   xmlns:sodipodi="http://sodipodi.sourceforge.net/DTD/sodipodi-0.dtd"
   xmlns="http://www.w3.org/2000/svg"
   xmlns:svg="http://www.w3.org/2000/svg"
   xmlns:rdf="http://www.w3.org/1999/02/22-rdf-syntax-ns#"
   xmlns:cc="http://creativecommons.org/ns#"
   xmlns:dc="http://purl.org/dc/elements/1.1/">
  <defs
     id="defs4583">
    <inkscape:path-effect
       effect="fillet_chamfer"
       id="path-effect12498"
       is_visible="true"
       lpeversion="1"
       nodesatellites_param="F,0,0,1,0,0,0,1 @ F,0,0,1,0,4,0,1 @ F,0,0,1,0,4,0,1 @ F,0,0,1,0,0,0,1 @ F,0,0,1,0,4,0,1 @ F,0,0,1,0,4,0,1 @ F,0,0,1,0,0,0,1"
       unit="px"
       method="auto"
       mode="F"
       radius="0"
       chamfer_steps="1"
       flexible="false"
       use_knot_distance="true"
       apply_no_radius="true"
       apply_with_radius="true"
       only_selected="false"
       hide_knots="false" />
    <inkscape:path-effect
       effect="fillet_chamfer"
       id="path-effect12492"
       is_visible="true"
       lpeversion="1"
       nodesatellites_param="F,0,0,1,0,0,0,1 @ F,0,0,1,0,4,0,1 @ F,0,0,1,0,4,0,1 @ F,0,0,1,0,0,0,1 @ F,0,0,1,0,4,0,1 @ F,0,0,1,0,4,0,1 @ F,0,0,1,0,0,0,1"
       unit="px"
       method="auto"
       mode="F"
       radius="0"
       chamfer_steps="1"
       flexible="false"
       use_knot_distance="true"
       apply_no_radius="true"
       apply_with_radius="true"
       only_selected="false"
       hide_knots="false" />
    <inkscape:path-effect
       effect="fillet_chamfer"
       id="path-effect266"
       is_visible="true"
       lpeversion="1"
       nodesatellites_param="F,0,0,1,0,0,0,1 @ F,0,0,1,0,4,0,1 @ F,0,0,1,0,0,0,1"
       unit="px"
       method="auto"
       mode="F"
       radius="0"
       chamfer_steps="1"
       flexible="false"
       use_knot_distance="true"
       apply_no_radius="true"
       apply_with_radius="true"
       only_selected="false"
       hide_knots="false" />
    <inkscape:path-effect
       effect="fillet_chamfer"
       id="path-effect168"
       is_visible="true"
       lpeversion="1"
       nodesatellites_param="F,0,0,1,0,3,0,1 @ F,0,0,1,0,0,0,1 @ F,0,0,1,0,6,0,1 @ F,0,0,1,0,0,0,1 @ F,0,0,1,0,3,0,1 @ F,0,1,1,0,3,0,1"
       unit="px"
       method="auto"
       mode="F"
       radius="0"
       chamfer_steps="1"
       flexible="false"
       use_knot_distance="true"
       apply_no_radius="true"
       apply_with_radius="true"
       only_selected="false"
       hide_knots="false" />
  </defs>
  <sodipodi:namedview
     id="base"
     pagecolor="#ffffff"
     bordercolor="#666666"
     borderopacity="1.0"
     inkscape:pageopacity="0.0"
     inkscape:pageshadow="2"
     inkscape:zoom="5.6568542"
     inkscape:cx="47.199378"
     inkscape:cy="27.665553"
     inkscape:document-units="px"
     inkscape:current-layer="layer1"
     showgrid="true"
     units="px"
     inkscape:window-width="1864"
     inkscape:window-height="1016"
     inkscape:window-x="56"
     inkscape:window-y="27"
     inkscape:window-maximized="1"
     inkscape:showpageshadow="2"
     inkscape:pagecheckerboard="true"
     inkscape:deskcolor="#d1d1d1"
     showborder="true"
     borderlayer="true">
    <inkscape:grid
       type="xygrid"
       id="grid4591"
       empspacing="8" />
  </sodipodi:namedview>
  <metadata
     id="metadata4586">
    <rdf:RDF>
      <cc:Work
         rdf:about="">
        <dc:format>image/svg+xml</dc:format>
        <dc:type
           rdf:resource="http://purl.org/dc/dcmitype/StillImage" />
      </cc:Work>
    </rdf:RDF>
  </metadata>
  <g
     inkscape:label="Layer 1"
     inkscape:groupmode="layer"
     id="layer1"
     transform="translate(0,-272.53333)">
    <path
       id="rect4595"
       style="stroke-width:2;stroke-miterlimit:4;stroke-dasharray:none"
       d="M 9 272.53333 A 3 3 0 0 0 6 275.53333 L 6 317.53333 A 3 3 0 0 0 9 320.53333 L 39 320.53333 A 3 3 0 0 0 42 317.53333 L 42 286.53333 L 34 286.53333 A 6 6 0 0 1 28 280.53333 L 28 272.53333 L 9 272.53333 z M 21 290.53333 L 21 292.53333 C 19.331307 292.53333 18 293.86464 18 295.53333 L 18 297.53333 C 18 299.20796 17.111783 300.62467 15.837891 301.53333 C 17.111783 302.442 18 303.85871 18 305.53333 L 18 307.53333 C 18 309.20203 19.331307 310.53333 21 310.53333 L 21 312.53333 C 18.25043 312.53333 16 310.28291 16 307.53333 L 16 305.53333 C 16 303.86464 14.668693 302.53333 13 302.53333 L 13 300.53333 C 14.668693 300.53333 16 299.20203 16 297.53333 L 16 295.53333 C 16 292.78376 18.25043 290.53333 21 290.53333 z M 27 290.53333 C 29.74957 290.53333 32 292.78376 32 295.53333 L 32 297.53333 C 32 299.20203 33.331307 300.53333 35 300.53333 L 35 302.53333 C 33.331307 302.53333 32 303.86464 32 305.53333 L 32 307.53333 C 32 310.28291 29.74957 312.53333 27 312.53333 L 27 310.53333 C 28.668693 310.53333 30 309.20203 30 307.53333 L 30 305.53333 C 30 303.85871 30.888217 302.442 32.162109 301.53333 C 30.888217 300.62467 30 299.20796 30 297.53333 L 30 295.53333 C 30 293.86464 28.668693 292.53333 27 292.53333 L 27 290.53333 z " />
    <path
       style="fill:#000000;fill-opacity:1;stroke:none;stroke-width:1px;stroke-linecap:butt;stroke-linejoin:miter;stroke-opacity:1"
       d="m 30,272.53333 v 8 a 4,4 45 0 0 4,4 h 8 z"
       id="path4598"
       inkscape:connector-curvature="0"
       inkscape:path-effect="#path-effect266"
       inkscape:original-d="m 30,272.53333 v 12 h 12 z"
       sodipodi:nodetypes="cccc" />
  </g>
</svg>
